<?xml version="1.0" standalone="no"?>
<!DOCTYPE svg PUBLIC "-//W3C//DTD SVG 20010904//EN"
 "http://www.w3.org/TR/2001/REC-SVG-20010904/DTD/svg10.dtd">
<svg version="1.0" xmlns="http://www.w3.org/2000/svg"
 width="225.000000pt" height="225.000000pt" viewBox="0 0 225.000000 225.000000"
 preserveAspectRatio="xMidYMid meet">

<g transform="translate(0.000000,225.000000) scale(0.100000,-0.100000)"
fill="#000000" stroke="none">
<path d="M700 1928 c-76 -10 -176 -54 -236 -103 -52 -43 -96 -111 -125 -195
-21 -60 -23 -84 -25 -325 -2 -143 0 -252 2 -242 3 9 10 17 16 17 13 0 71 -32
80 -45 5 -6 8 -5 8 3 0 6 5 12 10 12 6 0 11 -19 12 -42 1 -24 5 85 8 242 7
308 13 345 66 421 14 21 46 52 71 68 79 53 112 56 538 56 426 0 459 -3 538
-56 51 -34 88 -84 113 -154 16 -44 19 -95 22 -413 5 -481 -6 -547 -106 -641
-26 -24 -37 -39 -25 -32 27 14 36 14 28 1 -3 -5 -1 -10 5 -10 7 0 10 7 7 15
-4 8 -2 17 3 20 9 6 14 -8 11 -28 -2 -11 14 -8 27 5 9 9 12 9 13 -3 2 -49 19
-76 39 -64 6 4 9 13 6 21 -3 9 0 11 11 7 12 -5 15 -2 10 10 -4 10 -2 16 6 14
7 -1 11 6 11 15 -1 10 3 16 9 15 18 -4 57 87 73 171 13 69 15 151 12 480 -4
371 -5 401 -25 459 -56 168 -172 267 -349 298 -92 17 -754 19 -864 3z m1050
-1398 c0 -5 -2 -10 -4 -10 -3 0 -8 5 -11 10 -3 6 -1 10 4 10 6 0 11 -4 11 -10z
m39 -56 c-7 -8 -6 -13 3 -17 7 -2 10 -8 6 -12 -10 -11 -18 -3 -22 22 -3 12 1
20 10 20 10 0 11 -4 3 -13z"/>
<path d="M1524 1650 c-47 -19 -68 -85 -42 -133 18 -34 40 -46 81 -47 29 0 45
7 68 29 73 74 -9 191 -107 151z"/>
<path d="M1005 1527 c-117 -39 -203 -113 -256 -223 -32 -65 -34 -75 -34 -176
0 -75 4 -111 13 -120 11 -11 12 -8 7 17 -5 28 -5 28 5 6 6 -13 8 -32 5 -41 -6
-20 3 -50 15 -50 5 0 11 9 15 19 6 20 6 20 26 0 11 -11 33 -22 49 -25 37 -8
43 -24 19 -53 -16 -20 -22 -22 -37 -10 -15 11 -15 11 1 -7 18 -19 18 -19 37 6
22 29 38 32 62 12 19 -16 53 -9 43 9 -4 6 -13 8 -20 5 -7 -2 -21 2 -32 10 -17
14 -16 14 5 4 20 -10 17 -3 -15 38 -21 27 -40 45 -43 41 -7 -11 -12 43 -13
146 -1 74 1 84 31 132 57 91 156 140 263 130 66 -6 110 -26 162 -76 52 -48 78
-103 84 -172 8 -87 -17 -155 -81 -217 -57 -57 -114 -82 -187 -82 -27 0 -49 -4
-49 -9 0 -5 -9 -7 -20 -4 -11 3 -20 0 -20 -6 0 -6 -5 -11 -11 -11 -5 0 -7 5
-4 10 8 13 -5 13 -25 0 -13 -8 -12 -10 3 -10 11 0 15 -4 11 -12 -5 -8 -2 -9
11 -4 16 6 78 -16 95 -34 3 -3 18 -11 33 -18 37 -16 26 -31 -24 -30 -22 0 -43
-2 -46 -6 -4 -3 21 -6 55 -6 34 0 62 3 62 8 0 4 15 8 33 9 39 2 123 45 120 61
-2 6 3 9 10 6 22 -8 105 85 140 156 30 61 32 71 32 175 0 102 -2 115 -31 175
-41 88 -116 163 -201 203 -59 27 -80 32 -163 34 -59 2 -110 -2 -135 -10z
m-228 -529 c-3 -7 -5 -2 -5 12 0 14 2 19 5 13 2 -7 2 -19 0 -25z m129 -83 c3
-22 -13 -9 -19 16 -4 16 -3 19 5 11 7 -7 13 -19 14 -27z"/>
<path d="M772 940 c-7 -11 -8 -20 -3 -20 9 0 24 30 18 36 -1 2 -8 -6 -15 -16z"/>
<path d="M980 870 c-8 -5 -16 -19 -16 -30 -1 -11 0 -19 2 -18 1 2 2 6 1 9 -1
4 7 16 17 28 21 23 20 26 -4 11z"/>
<path d="M832 835 c21 -22 39 -37 41 -34 2 2 -15 19 -37 38 l-41 35 37 -39z"/>
<path d="M999 854 c-9 -11 -5 -12 21 -9 42 5 47 11 15 17 -14 3 -30 -1 -36 -8z"/>
<path d="M894 795 c-18 -15 -18 -15 0 -8 15 5 17 3 11 -8 -5 -8 -4 -11 0 -6 8
7 17 37 11 37 -1 0 -11 -7 -22 -15z"/>
</g>
</svg>
