<?xml version="1.0" standalone="no"?>
<!DOCTYPE svg PUBLIC "-//W3C//DTD SVG 20010904//EN"
 "http://www.w3.org/TR/2001/REC-SVG-20010904/DTD/svg10.dtd">
<svg version="1.0" xmlns="http://www.w3.org/2000/svg"
 width="225.000000pt" height="225.000000pt" viewBox="0 0 225.000000 225.000000"
 preserveAspectRatio="xMidYMid meet">

<g transform="translate(0.000000,225.000000) scale(0.100000,-0.100000)"
fill="#000000" stroke="none">
<path d="M540 2244 c-190 -37 -365 -175 -460 -364 -89 -176 -94 -499 -13 -779
118 -409 390 -746 755 -936 379 -196 764 -216 1043 -53 108 63 231 193 282
298 70 142 88 221 88 390 -1 132 -3 151 -27 212 -68 179 -175 292 -508 540
-129 97 -305 234 -391 306 -261 217 -390 304 -534 358 -68 25 -179 38 -235 28z
m210 -174 c113 -45 228 -125 475 -330 88 -74 264 -211 390 -305 329 -246 427
-352 467 -504 21 -82 22 -157 4 -253 -65 -335 -303 -528 -653 -529 -61 0 -123
3 -138 7 -26 7 -25 9 69 103 l96 97 -50 49 -50 49 -128 -127 -128 -128 -80 31
c-148 59 -286 142 -397 240 l-48 43 67 68 68 69 -49 50 -49 50 -67 -66 -66
-66 -45 59 c-56 74 -99 143 -134 216 l-28 57 127 128 127 127 -53 53 -53 52
-99 -100 c-55 -55 -102 -100 -106 -100 -11 0 -38 110 -55 221 -11 73 -14 138
-10 219 9 199 46 293 160 406 143 144 274 178 436 114z"/>
<path d="M1147 902 l-147 -147 50 -50 50 -50 148 148 147 147 -50 50 -50 50
-148 -148z"/>
</g>
</svg>
